<svg width="128" height="128" xmlns="http://www.w3.org/2000/svg">
  <style>
    .b {fill: #0d1117}
    .l {fill: #fff}
    @media (prefers-color-scheme: light) {
      .b {fill: #fff}
      .l {fill: #0d1117}
    }
  </style>
  <rect class="b" x="0" y="0" width="128" height="128" />
  <path class="l" mask="url(#a)" d="M61.385 5.762c1.087-2.275 4.326-2.275 5.413 0l4.448 9.304a3 3 0 0 0 4.712.937l7.67-6.893c1.874-1.686 4.866-.447 5 2.071l.549 10.298a3 3 0 0 0 3.995 2.669l9.723-3.434c2.378-.84 4.668 1.45 3.828 3.828l-3.434 9.724a3 3 0 0 0 2.67 3.994l10.297.549c2.518.134 3.757 3.126 2.072 5.001l-6.894 7.67a3 3 0 0 0 .937 4.712l9.304 4.447c2.275 1.088 2.275 4.326 0 5.413l-9.304 4.448a3 3 0 0 0-.937 4.712l6.894 7.67c1.685 1.875.446 4.867-2.072 5l-10.297.55a3 3 0 0 0-2.67 3.994l3.434 9.724c.84 2.377-1.45 4.667-3.828 3.828l-9.723-3.434a3 3 0 0 0-3.995 2.669l-.549 10.298c-.134 2.518-3.126 3.757-5 2.071l-7.67-6.893a3 3 0 0 0-4.712.937l-4.448 9.304c-1.087 2.275-4.326 2.275-5.413 0l-4.448-9.304a3 3 0 0 0-4.712-.937l-7.67 6.893c-1.875 1.686-4.867.447-5-2.071l-.55-10.298a3 3 0 0 0-3.994-2.669l-9.724 3.434c-2.377.839-4.667-1.451-3.827-3.828l3.433-9.724a3 3 0 0 0-2.669-3.995l-10.297-.548c-2.518-.134-3.757-3.126-2.072-5.001l6.894-7.67a3 3 0 0 0-.938-4.712l-9.303-4.448c-2.275-1.087-2.275-4.325 0-5.413l9.303-4.447a3 3 0 0 0 .938-4.712l-6.894-7.67c-1.685-1.875-.446-4.867 2.072-5.001l10.297-.549a3 3 0 0 0 2.67-3.994l-3.434-9.724c-.84-2.378 1.45-4.668 3.827-3.828l9.724 3.434a3 3 0 0 0 3.995-2.67l.548-10.297c.134-2.518 3.126-3.757 5.002-2.071l7.67 6.893a3 3 0 0 0 4.711-.937l4.448-9.304Z"/>
  <path class="l" d="M43.696 40.84c-2.177 1.77-4.084 3.32-4.24 3.445l-.28.219 1.897 1.842 1.897 1.832-.01 16.807v16.808l-2.571 3.07-2.57 3.07 3.918.031c2.156.01 5.69.01 7.868 0l3.95-.03-2.603-3.04-2.602-3.049.021-12.562.031-12.561 6.313 10.376c3.473 5.703 6.324 10.365 6.334 10.355.01-.02 2.84-4.642 6.272-10.282 3.431-5.64 6.282-10.293 6.334-10.355.052-.053.093 5.276.093 12.447v12.55l-1.472 1.76c-.808.968-1.97 2.352-2.591 3.08l-1.12 1.332h9.9c5.442 0 9.9-.02 9.9-.041 0-.032-1.14-1.416-2.54-3.08l-2.54-3.03V46.794l2.54-3.028c1.4-1.665 2.54-3.06 2.54-3.08 0-.032-4.458-.053-9.9-.053h-9.89l2.696 3.227c1.482 1.78 2.674 3.257 2.653 3.31-.02.04-2.322 3.85-5.11 8.481-3.815 6.317-5.09 8.367-5.173 8.263a6780.61 6780.61 0 0 1-7.982-13.217c-4.333-7.191-7.91-13.082-7.94-13.082-.032 0-1.846 1.447-4.023 3.227Z"/>
  <defs>
    <mask id="a">
      <rect fill="white" x="0" y="0" width="128" height="128" />
      <circle fill="black" cx="64.091" cy="63.346" r="40.503" />
    </mask>
  </defs>
</svg>
